<mxfile host="65bd71144e">
    <diagram id="RznZ8jaRm5gdOWH3J7R5" name="第 1 页">
        <mxGraphModel dx="1080" dy="721" grid="1" gridSize="10" guides="1" tooltips="1" connect="1" arrows="1" fold="1" page="1" pageScale="1" pageWidth="827" pageHeight="1169" math="0" shadow="0">
            <root>
                <mxCell id="0"/>
                <mxCell id="1" parent="0"/>
                <mxCell id="154" value="" style="rounded=1;whiteSpace=wrap;html=1;strokeWidth=2;" parent="1" vertex="1">
                    <mxGeometry x="110" y="300" width="580.5" height="250" as="geometry"/>
                </mxCell>
                <mxCell id="10" value="" style="endArrow=none;dashed=1;html=1;strokeWidth=2;rounded=1;" parent="1" edge="1">
                    <mxGeometry width="50" height="50" relative="1" as="geometry">
                        <mxPoint x="250" y="400" as="sourcePoint"/>
                        <mxPoint x="250" y="170" as="targetPoint"/>
                    </mxGeometry>
                </mxCell>
                <mxCell id="11" value="" style="endArrow=none;dashed=1;html=1;strokeWidth=2;rounded=1;" parent="1" edge="1">
                    <mxGeometry width="50" height="50" relative="1" as="geometry">
                        <mxPoint x="400" y="400" as="sourcePoint"/>
                        <mxPoint x="400" y="170" as="targetPoint"/>
                    </mxGeometry>
                </mxCell>
                <mxCell id="142" value="" style="endArrow=none;dashed=1;html=1;strokeWidth=2;rounded=1;exitX=0.761;exitY=-0.003;exitDx=0;exitDy=0;exitPerimeter=0;" parent="1" source="154" edge="1">
                    <mxGeometry width="50" height="50" relative="1" as="geometry">
                        <mxPoint x="552" y="290" as="sourcePoint"/>
                        <mxPoint x="552" y="170" as="targetPoint"/>
                    </mxGeometry>
                </mxCell>
                <mxCell id="150" value="&lt;font face=&quot;Times New Roman&quot; style=&quot;font-size: 24px;&quot;&gt;RocksDB&lt;/font&gt;" style="text;html=1;align=center;verticalAlign=middle;resizable=0;points=[];autosize=1;strokeColor=none;fillColor=none;" parent="1" vertex="1">
                    <mxGeometry x="493" y="123" width="120" height="40" as="geometry"/>
                </mxCell>
                <mxCell id="62" value="" style="shape=table;html=1;whiteSpace=wrap;startSize=0;container=1;collapsible=0;childLayout=tableLayout;fontFamily=Times New Roman;fontSize=48;strokeWidth=2;fillColor=#FFFFFF;" parent="1" vertex="1">
                    <mxGeometry x="479.5" y="492" width="161" height="40" as="geometry"/>
                </mxCell>
                <mxCell id="63" value="" style="shape=tableRow;horizontal=0;startSize=0;swimlaneHead=0;swimlaneBody=0;top=0;left=0;bottom=0;right=0;collapsible=0;dropTarget=0;fillColor=none;points=[[0,0.5],[1,0.5]];portConstraint=eastwest;fontFamily=Times New Roman;fontSize=48;" parent="62" vertex="1">
                    <mxGeometry width="161" height="40" as="geometry"/>
                </mxCell>
                <mxCell id="102" style="shape=partialRectangle;html=1;whiteSpace=wrap;connectable=0;fillColor=none;top=0;left=0;bottom=0;right=0;overflow=hidden;fontFamily=Times New Roman;fontSize=48;" parent="63" vertex="1">
                    <mxGeometry width="23" height="40" as="geometry">
                        <mxRectangle width="23" height="40" as="alternateBounds"/>
                    </mxGeometry>
                </mxCell>
                <mxCell id="101" style="shape=partialRectangle;html=1;whiteSpace=wrap;connectable=0;fillColor=none;top=0;left=0;bottom=0;right=0;overflow=hidden;fontFamily=Times New Roman;fontSize=48;" parent="63" vertex="1">
                    <mxGeometry x="23" width="23" height="40" as="geometry">
                        <mxRectangle width="23" height="40" as="alternateBounds"/>
                    </mxGeometry>
                </mxCell>
                <mxCell id="100" style="shape=partialRectangle;html=1;whiteSpace=wrap;connectable=0;fillColor=none;top=0;left=0;bottom=0;right=0;overflow=hidden;fontFamily=Times New Roman;fontSize=48;" parent="63" vertex="1">
                    <mxGeometry x="46" width="23" height="40" as="geometry">
                        <mxRectangle width="23" height="40" as="alternateBounds"/>
                    </mxGeometry>
                </mxCell>
                <mxCell id="98" style="shape=partialRectangle;html=1;whiteSpace=wrap;connectable=0;fillColor=none;top=0;left=0;bottom=0;right=0;overflow=hidden;fontFamily=Times New Roman;fontSize=48;" parent="63" vertex="1">
                    <mxGeometry x="69" width="23" height="40" as="geometry">
                        <mxRectangle width="23" height="40" as="alternateBounds"/>
                    </mxGeometry>
                </mxCell>
                <mxCell id="97" style="shape=partialRectangle;html=1;whiteSpace=wrap;connectable=0;fillColor=none;top=0;left=0;bottom=0;right=0;overflow=hidden;fontFamily=Times New Roman;fontSize=48;" parent="63" vertex="1">
                    <mxGeometry x="92" width="23" height="40" as="geometry">
                        <mxRectangle width="23" height="40" as="alternateBounds"/>
                    </mxGeometry>
                </mxCell>
                <mxCell id="96" style="shape=partialRectangle;html=1;whiteSpace=wrap;connectable=0;fillColor=none;top=0;left=0;bottom=0;right=0;overflow=hidden;fontFamily=Times New Roman;fontSize=48;" parent="63" vertex="1">
                    <mxGeometry x="115" width="23" height="40" as="geometry">
                        <mxRectangle width="23" height="40" as="alternateBounds"/>
                    </mxGeometry>
                </mxCell>
                <mxCell id="95" style="shape=partialRectangle;html=1;whiteSpace=wrap;connectable=0;fillColor=none;top=0;left=0;bottom=0;right=0;overflow=hidden;fontFamily=Times New Roman;fontSize=48;" parent="63" vertex="1">
                    <mxGeometry x="138" width="23" height="40" as="geometry">
                        <mxRectangle width="23" height="40" as="alternateBounds"/>
                    </mxGeometry>
                </mxCell>
                <mxCell id="164" value="" style="group" parent="1" vertex="1" connectable="0">
                    <mxGeometry x="150" y="320" width="60" height="80" as="geometry"/>
                </mxCell>
                <mxCell id="161" value="" style="shape=partialRectangle;whiteSpace=wrap;html=1;bottom=0;top=0;fillColor=default;strokeWidth=2;" parent="164" vertex="1">
                    <mxGeometry width="40" height="60" as="geometry"/>
                </mxCell>
                <mxCell id="162" value="" style="shape=partialRectangle;whiteSpace=wrap;html=1;bottom=0;top=0;fillColor=default;strokeWidth=2;" parent="164" vertex="1">
                    <mxGeometry x="10" y="10" width="40" height="60" as="geometry"/>
                </mxCell>
                <mxCell id="163" value="" style="shape=partialRectangle;whiteSpace=wrap;html=1;bottom=0;top=0;fillColor=default;strokeWidth=2;" parent="164" vertex="1">
                    <mxGeometry x="20" y="20" width="40" height="60" as="geometry"/>
                </mxCell>
                <mxCell id="165" value="" style="sketch=0;pointerEvents=1;shadow=0;dashed=0;html=1;strokeColor=none;fillColor=#505050;labelPosition=center;verticalLabelPosition=bottom;verticalAlign=top;outlineConnect=0;align=center;shape=mxgraph.office.devices.nic;strokeWidth=2;" parent="1" vertex="1">
                    <mxGeometry x="130.5" y="555" width="57" height="38" as="geometry"/>
                </mxCell>
                <mxCell id="166" value="" style="sketch=0;pointerEvents=1;shadow=0;dashed=0;html=1;strokeColor=none;fillColor=#434445;aspect=fixed;labelPosition=center;verticalLabelPosition=bottom;verticalAlign=top;align=center;outlineConnect=0;shape=mxgraph.vvd.ssd;strokeWidth=2;" parent="1" vertex="1">
                    <mxGeometry x="210" y="557.5" width="50" height="35.5" as="geometry"/>
                </mxCell>
                <mxCell id="176" value="" style="endArrow=classic;html=1;strokeWidth=1;entryX=0.367;entryY=1.017;entryDx=0;entryDy=0;entryPerimeter=0;" parent="1" edge="1">
                    <mxGeometry width="50" height="50" relative="1" as="geometry">
                        <mxPoint x="572" y="320" as="sourcePoint"/>
                        <mxPoint x="614.7370000000001" y="285.601" as="targetPoint"/>
                        <Array as="points">
                            <mxPoint x="582" y="310"/>
                            <mxPoint x="592" y="300"/>
                        </Array>
                    </mxGeometry>
                </mxCell>
                <mxCell id="177" value="" style="endArrow=classic;html=1;strokeWidth=1;entryX=0.59;entryY=0.005;entryDx=0;entryDy=0;entryPerimeter=0;exitX=0.233;exitY=1.007;exitDx=0;exitDy=0;exitPerimeter=0;" parent="1" edge="1">
                    <mxGeometry width="50" height="50" relative="1" as="geometry">
                        <mxPoint x="599.863" y="284.571" as="sourcePoint"/>
                        <mxPoint x="557.5999999999999" y="320.29999999999995" as="targetPoint"/>
                        <Array as="points">
                            <mxPoint x="577" y="300"/>
                            <mxPoint x="567" y="310"/>
                        </Array>
                    </mxGeometry>
                </mxCell>
                <mxCell id="184" value="" style="endArrow=classic;html=1;strokeWidth=1;exitX=0.87;exitY=1.005;exitDx=0;exitDy=0;exitPerimeter=0;" parent="1" edge="1">
                    <mxGeometry width="50" height="50" relative="1" as="geometry">
                        <mxPoint x="516.5699999999999" y="284.365" as="sourcePoint"/>
                        <mxPoint x="537.75" y="320" as="targetPoint"/>
                        <Array as="points">
                            <mxPoint x="530" y="300"/>
                            <mxPoint x="537" y="310"/>
                        </Array>
                    </mxGeometry>
                </mxCell>
                <mxCell id="183" value="" style="endArrow=classic;html=1;strokeWidth=1;exitX=0.31;exitY=-0.018;exitDx=0;exitDy=0;exitPerimeter=0;entryX=0.948;entryY=0.979;entryDx=0;entryDy=0;entryPerimeter=0;" parent="1" edge="1">
                    <mxGeometry width="50" height="50" relative="1" as="geometry">
                        <mxPoint x="552.4000000000001" y="318.91999999999996" as="sourcePoint"/>
                        <mxPoint x="525.2280000000001" y="281.687" as="targetPoint"/>
                        <Array as="points">
                            <mxPoint x="543" y="300"/>
                            <mxPoint x="533" y="290"/>
                        </Array>
                    </mxGeometry>
                </mxCell>
                <mxCell id="169" value="" style="endArrow=classic;html=1;strokeWidth=1;entryX=0.539;entryY=1.008;entryDx=0;entryDy=0;entryPerimeter=0;" parent="1" edge="1">
                    <mxGeometry width="50" height="50" relative="1" as="geometry">
                        <mxPoint x="179.94" y="320" as="sourcePoint"/>
                        <mxPoint x="179.82899999999995" y="285.674" as="targetPoint"/>
                    </mxGeometry>
                </mxCell>
                <mxCell id="170" value="" style="endArrow=classic;html=1;strokeWidth=1;entryX=0.5;entryY=0;entryDx=0;entryDy=0;exitX=0.449;exitY=1.007;exitDx=0;exitDy=0;exitPerimeter=0;" parent="1" edge="1">
                    <mxGeometry width="50" height="50" relative="1" as="geometry">
                        <mxPoint x="169.83899999999994" y="285.571" as="sourcePoint"/>
                        <mxPoint x="170" y="325" as="targetPoint"/>
                    </mxGeometry>
                </mxCell>
                <mxCell id="186" value="" style="endArrow=classic;html=1;strokeWidth=1;entryX=0.539;entryY=1.008;entryDx=0;entryDy=0;entryPerimeter=0;exitX=0.541;exitY=0.003;exitDx=0;exitDy=0;exitPerimeter=0;" parent="1" source="185" edge="1">
                    <mxGeometry width="50" height="50" relative="1" as="geometry">
                        <mxPoint x="195.36000000000007" y="434.43" as="sourcePoint"/>
                        <mxPoint x="195.24899999999997" y="400.104" as="targetPoint"/>
                    </mxGeometry>
                </mxCell>
                <mxCell id="187" value="" style="endArrow=classic;html=1;strokeWidth=1;entryX=0.456;entryY=-0.01;entryDx=0;entryDy=0;exitX=0.449;exitY=1.007;exitDx=0;exitDy=0;exitPerimeter=0;entryPerimeter=0;" parent="1" target="185" edge="1">
                    <mxGeometry width="50" height="50" relative="1" as="geometry">
                        <mxPoint x="185.25899999999996" y="400.00100000000003" as="sourcePoint"/>
                        <mxPoint x="185.42000000000002" y="439.43" as="targetPoint"/>
                    </mxGeometry>
                </mxCell>
                <mxCell id="190" value="" style="endArrow=classic;html=1;strokeWidth=1;entryX=0.328;entryY=1.02;entryDx=0;entryDy=0;entryPerimeter=0;" parent="1" source="165" target="185" edge="1">
                    <mxGeometry width="50" height="50" relative="1" as="geometry">
                        <mxPoint x="160" y="502.5" as="sourcePoint"/>
                        <mxPoint x="210" y="452.5" as="targetPoint"/>
                    </mxGeometry>
                </mxCell>
                <mxCell id="192" value="" style="endArrow=classic;html=1;strokeWidth=1;entryX=0.75;entryY=1;entryDx=0;entryDy=0;" parent="1" source="166" target="185" edge="1">
                    <mxGeometry width="50" height="50" relative="1" as="geometry">
                        <mxPoint x="230" y="510" as="sourcePoint"/>
                        <mxPoint x="250.49621621621623" y="480" as="targetPoint"/>
                    </mxGeometry>
                </mxCell>
                <mxCell id="194" value="" style="endArrow=classic;html=1;strokeWidth=1;strokeColor=#000000;" parent="1" edge="1">
                    <mxGeometry width="50" height="50" relative="1" as="geometry">
                        <mxPoint x="230" y="281" as="sourcePoint"/>
                        <mxPoint x="310" y="320" as="targetPoint"/>
                        <Array as="points">
                            <mxPoint x="280" y="290"/>
                        </Array>
                    </mxGeometry>
                </mxCell>
                <mxCell id="195" value="&lt;font face=&quot;Times New Roman&quot; style=&quot;font-size: 24px;&quot;&gt;IPC Table&lt;/font&gt;" style="text;html=1;align=center;verticalAlign=middle;resizable=0;points=[];autosize=1;strokeColor=none;fillColor=none;" parent="1" vertex="1">
                    <mxGeometry x="499.5" y="452" width="120" height="40" as="geometry"/>
                </mxCell>
                <mxCell id="196" value="" style="endArrow=classic;html=1;strokeColor=#000000;entryX=0.625;entryY=-0.021;entryDx=0;entryDy=0;entryPerimeter=0;" parent="1" edge="1">
                    <mxGeometry width="50" height="50" relative="1" as="geometry">
                        <mxPoint x="622" y="284" as="sourcePoint"/>
                        <mxPoint x="622" y="489.1600000000001" as="targetPoint"/>
                    </mxGeometry>
                </mxCell>
                <mxCell id="197" value="&lt;font face=&quot;Times New Roman&quot; style=&quot;font-size: 24px;&quot;&gt;IPC&lt;/font&gt;" style="text;html=1;align=center;verticalAlign=middle;resizable=0;points=[];autosize=1;strokeColor=none;fillColor=default;" parent="1" vertex="1">
                    <mxGeometry x="610" y="412" width="60" height="40" as="geometry"/>
                </mxCell>
                <mxCell id="198" value="" style="endArrow=classic;html=1;strokeWidth=1;entryX=0.75;entryY=1;entryDx=0;entryDy=0;exitX=0;exitY=0.25;exitDx=0;exitDy=0;" parent="1" source="222" target="163" edge="1">
                    <mxGeometry width="50" height="50" relative="1" as="geometry">
                        <mxPoint x="280" y="420" as="sourcePoint"/>
                        <mxPoint x="250.5" y="441" as="targetPoint"/>
                        <Array as="points">
                            <mxPoint x="260" y="432"/>
                            <mxPoint x="240" y="430"/>
                            <mxPoint x="220" y="420"/>
                            <mxPoint x="210" y="410"/>
                        </Array>
                    </mxGeometry>
                </mxCell>
                <mxCell id="199" value="&lt;font face=&quot;Times New Roman&quot; style=&quot;font-size: 24px;&quot;&gt;ATS-INTC&lt;/font&gt;" style="text;html=1;align=center;verticalAlign=middle;resizable=0;points=[];autosize=1;strokeColor=none;fillColor=none;" parent="1" vertex="1">
                    <mxGeometry x="560.5" y="550" width="130" height="40" as="geometry"/>
                </mxCell>
                <mxCell id="210" value="" style="group" parent="1" vertex="1" connectable="0">
                    <mxGeometry x="110" y="150" width="130" height="130" as="geometry"/>
                </mxCell>
                <mxCell id="211" value="" style="sketch=0;pointerEvents=1;shadow=0;dashed=0;html=1;strokeColor=none;fillColor=#434445;aspect=fixed;labelPosition=center;verticalLabelPosition=bottom;verticalAlign=top;align=center;outlineConnect=0;shape=mxgraph.vvd.cpu;" parent="210" vertex="1">
                    <mxGeometry width="130" height="130" as="geometry"/>
                </mxCell>
                <mxCell id="212" value="&lt;font face=&quot;Times New Roman&quot; style=&quot;font-size: 24px;&quot;&gt;Kernel&lt;/font&gt;" style="text;html=1;align=center;verticalAlign=middle;resizable=0;points=[];autosize=1;strokeColor=none;fillColor=none;" parent="210" vertex="1">
                    <mxGeometry x="20" y="45" width="90" height="40" as="geometry"/>
                </mxCell>
                <mxCell id="213" value="" style="group" parent="1" vertex="1" connectable="0">
                    <mxGeometry x="260" y="150" width="130" height="130" as="geometry"/>
                </mxCell>
                <mxCell id="214" value="" style="sketch=0;pointerEvents=1;shadow=0;dashed=0;html=1;strokeColor=none;fillColor=#434445;aspect=fixed;labelPosition=center;verticalLabelPosition=bottom;verticalAlign=top;align=center;outlineConnect=0;shape=mxgraph.vvd.cpu;" parent="213" vertex="1">
                    <mxGeometry width="130" height="130" as="geometry"/>
                </mxCell>
                <mxCell id="215" value="&lt;font face=&quot;Times New Roman&quot; style=&quot;font-size: 24px;&quot;&gt;Redis&lt;/font&gt;" style="text;html=1;align=center;verticalAlign=middle;resizable=0;points=[];autosize=1;strokeColor=none;fillColor=none;" parent="213" vertex="1">
                    <mxGeometry x="25" y="45" width="80" height="40" as="geometry"/>
                </mxCell>
                <mxCell id="216" value="" style="group" parent="1" vertex="1" connectable="0">
                    <mxGeometry x="414" y="150" width="130" height="130" as="geometry"/>
                </mxCell>
                <mxCell id="217" value="" style="sketch=0;pointerEvents=1;shadow=0;dashed=0;html=1;strokeColor=none;fillColor=#434445;aspect=fixed;labelPosition=center;verticalLabelPosition=bottom;verticalAlign=top;align=center;outlineConnect=0;shape=mxgraph.vvd.cpu;" parent="216" vertex="1">
                    <mxGeometry width="130" height="130" as="geometry"/>
                </mxCell>
                <mxCell id="220" value="" style="group;strokeColor=none;allowArrows=1;dropTarget=1;comic=0;" parent="1" vertex="1" connectable="0">
                    <mxGeometry x="561.5" y="150" width="130" height="130" as="geometry"/>
                </mxCell>
                <mxCell id="221" value="" style="sketch=0;pointerEvents=1;shadow=0;dashed=0;html=1;strokeColor=none;fillColor=#434445;aspect=fixed;labelPosition=center;verticalLabelPosition=bottom;verticalAlign=top;align=center;outlineConnect=0;shape=mxgraph.vvd.cpu;" parent="220" vertex="1">
                    <mxGeometry width="130" height="130" as="geometry"/>
                </mxCell>
                <mxCell id="224" value="" style="group" parent="1" vertex="1" connectable="0">
                    <mxGeometry x="280" y="417" width="176" height="60" as="geometry"/>
                </mxCell>
                <mxCell id="222" value="" style="rounded=1;whiteSpace=wrap;html=1;strokeWidth=2;fillColor=default;" parent="224" vertex="1">
                    <mxGeometry width="176" height="60" as="geometry"/>
                </mxCell>
                <mxCell id="223" value="&lt;font face=&quot;Times New Roman&quot; style=&quot;font-size: 24px;&quot;&gt;IPC Dispatcher&lt;br&gt;&lt;/font&gt;" style="text;html=1;align=center;verticalAlign=middle;resizable=0;points=[];autosize=1;strokeColor=none;fillColor=none;" parent="224" vertex="1">
                    <mxGeometry x="3" y="10" width="170" height="40" as="geometry"/>
                </mxCell>
                <mxCell id="228" value="" style="group" parent="1" vertex="1" connectable="0">
                    <mxGeometry x="310" y="320" width="60" height="80" as="geometry"/>
                </mxCell>
                <mxCell id="229" value="" style="shape=partialRectangle;whiteSpace=wrap;html=1;bottom=0;top=0;fillColor=default;strokeWidth=2;" parent="228" vertex="1">
                    <mxGeometry width="40" height="60" as="geometry"/>
                </mxCell>
                <mxCell id="230" value="" style="shape=partialRectangle;whiteSpace=wrap;html=1;bottom=0;top=0;fillColor=default;strokeWidth=2;" parent="228" vertex="1">
                    <mxGeometry x="10" y="10" width="40" height="60" as="geometry"/>
                </mxCell>
                <mxCell id="231" value="" style="shape=partialRectangle;whiteSpace=wrap;html=1;bottom=0;top=0;fillColor=default;strokeWidth=2;" parent="228" vertex="1">
                    <mxGeometry x="20" y="20" width="40" height="60" as="geometry"/>
                </mxCell>
                <mxCell id="225" value="" style="endArrow=classic;html=1;strokeWidth=1;entryX=0.986;entryY=0.977;entryDx=0;entryDy=0;entryPerimeter=0;exitX=0.218;exitY=-0.006;exitDx=0;exitDy=0;exitPerimeter=0;" parent="1" source="62" target="222" edge="1">
                    <mxGeometry width="50" height="50" relative="1" as="geometry">
                        <mxPoint x="340" y="480" as="sourcePoint"/>
                        <mxPoint x="339.999" y="462.004" as="targetPoint"/>
                    </mxGeometry>
                </mxCell>
                <mxCell id="226" value="" style="endArrow=classic;html=1;strokeWidth=1;exitX=0.402;exitY=0.018;exitDx=0;exitDy=0;exitPerimeter=0;" parent="1" source="222" target="231" edge="1">
                    <mxGeometry width="50" height="50" relative="1" as="geometry">
                        <mxPoint x="389.9979002624671" y="407.5" as="sourcePoint"/>
                        <mxPoint x="360" y="400" as="targetPoint"/>
                    </mxGeometry>
                </mxCell>
                <mxCell id="227" value="" style="group" parent="1" vertex="1" connectable="0">
                    <mxGeometry x="130.5" y="450" width="123" height="63" as="geometry"/>
                </mxCell>
                <mxCell id="185" value="" style="rounded=1;whiteSpace=wrap;html=1;strokeWidth=2;fillColor=default;" parent="227" vertex="1">
                    <mxGeometry width="120" height="60" as="geometry"/>
                </mxCell>
                <mxCell id="188" value="&lt;font face=&quot;Times New Roman&quot; style=&quot;font-size: 24px;&quot;&gt;Ext Intr &lt;br&gt;Dispatcher&lt;br&gt;&lt;/font&gt;" style="text;html=1;align=center;verticalAlign=middle;resizable=0;points=[];autosize=1;strokeColor=none;fillColor=none;" parent="227" vertex="1">
                    <mxGeometry x="-7" y="-7" width="130" height="70" as="geometry"/>
                </mxCell>
                <mxCell id="174" value="" style="endArrow=classic;html=1;strokeWidth=1;entryX=0.5;entryY=0;entryDx=0;entryDy=0;exitX=0.45;exitY=1.011;exitDx=0;exitDy=0;exitPerimeter=0;" parent="1" edge="1">
                    <mxGeometry width="50" height="50" relative="1" as="geometry">
                        <mxPoint x="319.95000000000005" y="284.98300000000006" as="sourcePoint"/>
                        <mxPoint x="320" y="325" as="targetPoint"/>
                    </mxGeometry>
                </mxCell>
                <mxCell id="173" value="" style="endArrow=classic;html=1;strokeWidth=1;entryX=0.541;entryY=1.008;entryDx=0;entryDy=0;entryPerimeter=0;" parent="1" edge="1">
                    <mxGeometry width="50" height="50" relative="1" as="geometry">
                        <mxPoint x="329.94000000000005" y="320" as="sourcePoint"/>
                        <mxPoint x="330.05099999999993" y="284.674" as="targetPoint"/>
                    </mxGeometry>
                </mxCell>
                <mxCell id="232" value="" style="group" parent="1" vertex="1" connectable="0">
                    <mxGeometry x="530" y="320" width="95" height="80" as="geometry"/>
                </mxCell>
                <mxCell id="233" value="" style="shape=partialRectangle;whiteSpace=wrap;html=1;bottom=0;top=0;fillColor=default;strokeWidth=2;" parent="232" vertex="1">
                    <mxGeometry width="40" height="60" as="geometry"/>
                </mxCell>
                <mxCell id="234" value="" style="shape=partialRectangle;whiteSpace=wrap;html=1;bottom=0;top=0;fillColor=default;strokeWidth=2;" parent="232" vertex="1">
                    <mxGeometry x="10" y="10" width="40" height="60" as="geometry"/>
                </mxCell>
                <mxCell id="235" value="" style="shape=partialRectangle;whiteSpace=wrap;html=1;bottom=0;top=0;fillColor=default;strokeWidth=2;" parent="232" vertex="1">
                    <mxGeometry x="20" y="20" width="40" height="60" as="geometry"/>
                </mxCell>
                <mxCell id="236" value="" style="group" parent="1" vertex="1" connectable="0">
                    <mxGeometry x="280" y="484" width="183" height="60" as="geometry"/>
                </mxCell>
                <mxCell id="237" value="" style="rounded=1;whiteSpace=wrap;html=1;strokeWidth=2;fillColor=default;" parent="236" vertex="1">
                    <mxGeometry width="176" height="60" as="geometry"/>
                </mxCell>
                <mxCell id="238" value="&lt;font face=&quot;Times New Roman&quot; style=&quot;font-size: 24px;&quot;&gt;PScheduler Table&lt;br&gt;&lt;/font&gt;" style="text;html=1;align=center;verticalAlign=middle;resizable=0;points=[];autosize=1;strokeColor=none;fillColor=none;" parent="236" vertex="1">
                    <mxGeometry x="-7" y="10" width="190" height="40" as="geometry"/>
                </mxCell>
                <mxCell id="239" value="&lt;font face=&quot;Times New Roman&quot; style=&quot;font-size: 24px;&quot;&gt;PScheduler&lt;br&gt;&lt;/font&gt;" style="text;html=1;align=center;verticalAlign=middle;resizable=0;points=[];autosize=1;strokeColor=none;fillColor=default;" parent="1" vertex="1">
                    <mxGeometry x="450" y="350" width="130" height="40" as="geometry"/>
                </mxCell>
            </root>
        </mxGraphModel>
    </diagram>
</mxfile>